<?xml version="1.0" encoding="UTF-8" standalone="no"?>
<svg
   xmlns:munia="http://www.munia.io/namespaces/munia"
   xmlns:dc="http://purl.org/dc/elements/1.1/"
   xmlns:cc="http://creativecommons.org/ns#"
   xmlns:rdf="http://www.w3.org/1999/02/22-rdf-syntax-ns#"
   xmlns:svg="http://www.w3.org/2000/svg"
   xmlns="http://www.w3.org/2000/svg"
   xmlns:xlink="http://www.w3.org/1999/xlink"
   xmlns:sodipodi="http://sodipodi.sourceforge.net/DTD/sodipodi-0.dtd"
   xmlns:inkscape="http://www.inkscape.org/namespaces/inkscape"
   id="svg1385"
   version="1.1"
   viewBox="0 0 100 100"
   sodipodi:docname="ngc-abstract-v2.svg"
   inkscape:version="0.92.4 (5da689c313, 2019-01-14)">
  <sodipodi:namedview
     pagecolor="#000000"
     bordercolor="#666666"
     borderopacity="1"
     objecttolerance="10"
     gridtolerance="10"
     guidetolerance="10"
     inkscape:pageopacity="0"
     inkscape:pageshadow="2"
     inkscape:window-width="2560"
     inkscape:window-height="1373"
     id="namedview19"
     showgrid="false"
     inkscape:pagecheckerboard="true"
     inkscape:zoom="3.337544"
     inkscape:cx="142.21108"
     inkscape:cy="36.386807"
     inkscape:window-x="-9"
     inkscape:window-y="290"
     inkscape:window-maximized="1"
     inkscape:current-layer="svg1385" />
  <munia:info
     munia:skin-name="Gamecube Abstract"
     munia:device-type="NGC" />
  <path
     style="color:#000000;font-style:normal;font-variant:normal;font-weight:normal;font-stretch:normal;font-size:medium;line-height:normal;font-family:sans-serif;font-variant-ligatures:normal;font-variant-position:normal;font-variant-caps:normal;font-variant-numeric:normal;font-variant-alternates:normal;font-feature-settings:normal;text-indent:0;text-align:start;text-decoration:none;text-decoration-line:none;text-decoration-style:solid;text-decoration-color:#000000;letter-spacing:normal;word-spacing:normal;text-transform:none;writing-mode:lr-tb;direction:ltr;text-orientation:mixed;dominant-baseline:auto;baseline-shift:baseline;text-anchor:start;white-space:normal;shape-padding:0;clip-rule:nonzero;display:inline;overflow:visible;visibility:visible;opacity:1;isolation:auto;mix-blend-mode:normal;color-interpolation:sRGB;color-interpolation-filters:linearRGB;solid-color:#000000;solid-opacity:1;vector-effect:none;fill:url(#linearGradient4624);fill-opacity:1;fill-rule:nonzero;stroke:none;stroke-width:8.4588089;stroke-linecap:butt;stroke-linejoin:miter;stroke-miterlimit:4;stroke-dasharray:none;stroke-dashoffset:0;stroke-opacity:1;color-rendering:auto;image-rendering:auto;shape-rendering:auto;text-rendering:auto;enable-background:accumulate"
     d="m 41.17082,-5.0742893 c -1.649,0.00437 -1.22784,0.1741768 -1.42082,0.2340482 -0.19298,0.059874 -0.35578,0.1149553 -0.54244,0.1817319 -0.37333,0.1335646 -0.8232,0.3040998 -1.37401,0.5176622 -1.10161,0.4271233 -2.58892,1.0206399 -4.35056,1.7347171 -3.52328,1.42815288 -8.12843,3.33067862 -12.72951,5.2509594 -4.60109,1.9202808 -9.19225,3.858146 -12.68546,5.3583468 -1.74663,0.7501004 -3.21708,1.3896766 -4.29549,1.8723927 -0.53921,0.241358 -0.97519,0.439827 -1.3327,0.611281 -0.17877,0.08573 -0.33387,0.161 -0.51216,0.256078 -0.17829,0.09508 -10e-4,-0.323819 -1.16475,0.84533 -1.16293,1.169188 -0.74293,0.991448 -0.83707,1.170245 -0.0942,0.178797 -0.16855,0.33294 -0.25331,0.512154 -0.16954,0.35843 -0.36732,0.797717 -0.60578,1.338211 -0.47692,1.080989 -1.10965,2.553139 -1.85036,4.30375 -1.48143,3.501221 -3.39393,8.101653 -5.28951,12.712995 -1.89559,4.611343 -3.77284,9.228942 -5.18212,12.759805 -0.70467,1.765431 -1.29144,3.255015 -1.71269,4.35882 -0.21063,0.551902 -0.37784,1.002878 -0.50941,1.376759 -0.0657,0.186941 -0.12293,0.349401 -0.18172,0.542443 -0.0588,0.193043 -0.22866,-0.227186 -0.22579,1.418062 v 0.0028 c 0.004,1.648872 0.17418,1.227844 0.23405,1.420817 0.0599,0.192972 0.11772,0.35578 0.18449,0.542442 0.13351,0.373325 0.30409,0.820441 0.51765,1.371253 0.42713,1.101625 1.02065,2.59165 1.73472,4.353312 1.42813,3.523328 3.33071,8.12836 5.25096,12.729517 1.92025,4.601158 3.85542,9.192202 5.35559,12.68546 0.75009,1.74663 1.38969,3.217064 1.87239,4.295489 0.24136,0.539213 0.44259,0.977943 0.61404,1.335457 0.0857,0.178757 0.161,0.331116 0.25608,0.509401 0.095,0.178285 -0.32378,0.0018 0.84533,1.164739 1.1691,1.162869 0.9887,0.742947 1.1675,0.837069 0.17879,0.09412 0.33293,0.171307 0.51215,0.256077 0.35841,0.169541 0.79772,0.364549 1.33821,0.603021 1.08097,0.476944 2.55316,1.10961 4.30374,1.850364 3.50118,1.481509 8.10447,3.393847 12.71575,5.28951 4.61128,1.89567 9.2262,3.77282 12.75706,5.18212 1.76542,0.70466 3.2577,1.29146 4.36157,1.71269 0.55193,0.21062 1.00274,0.37784 1.37676,0.5094 0.18701,0.0658 0.34916,0.1229 0.54244,0.18174 0.19328,0.0588 -0.22795,0.23008 1.42082,0.22579 1.64899,-0.004 1.22508,-0.17418 1.41806,-0.23405 0.19298,-0.0599 0.35578,-0.11496 0.54244,-0.18174 0.37333,-0.13356 0.8232,-0.3041 1.37401,-0.51766 1.10161,-0.42712 2.58892,-1.02339 4.35056,-1.73747 3.52327,-1.42815 8.12843,-3.32792 12.72951,-5.2482 4.60109,-1.920289 9.19501,-3.858154 12.68822,-5.358355 1.7466,-0.7501 3.21432,-1.389676 4.29273,-1.872392 0.53921,-0.241358 0.97795,-0.442581 1.33546,-0.614035 0.17876,-0.08573 0.33112,-0.161002 0.5094,-0.256078 0.17828,-0.09508 0.002,0.323754 1.16474,-0.84533 1.16294,-1.169155 0.7457,-0.988696 0.83982,-1.167491 0.0941,-0.178796 0.16856,-0.332941 0.25333,-0.512155 0.16953,-0.358429 0.3673,-0.797715 0.60577,-1.33821 0.47694,-1.080991 1.10687,-2.553136 1.84761,-4.303749 1.48149,-3.501228 3.39388,-8.104396 5.28951,-12.71575 1.89563,-4.611352 3.77284,-9.226146 5.18212,-12.757051 0.70464,-1.765453 1.29147,-3.257688 1.71269,-4.361574 0.21061,-0.551943 0.37784,-1.002734 0.5094,-1.376758 0.0658,-0.187013 0.12289,-0.349167 0.18173,-0.542444 0.0588,-0.193277 0.23009,0.22791 0.22579,-1.420815 -0.004,-1.648914 -0.17418,-1.225088 -0.23405,-1.418063 -0.0599,-0.192975 -0.11495,-0.355779 -0.18173,-0.542444 -0.13356,-0.373326 -0.3041,-0.823193 -0.51766,-1.374005 -0.42712,-1.101626 -1.02341,-2.588896 -1.73747,-4.350559 -1.42813,-3.523328 -3.32796,-8.131113 -5.24821,-12.73227 -1.92025,-4.601158 -3.85817,-9.192202 -5.35834,-12.68546 -0.75009,-1.74663 -1.38969,-3.214311 -1.8724,-4.292736 -0.24135,-0.539212 -0.44258,-0.977941 -0.61403,-1.335457 -0.0857,-0.178757 -0.161,-0.333867 -0.25608,-0.512154 -0.0951,-0.178286 0.32654,9.24e-4 -0.84258,-1.161985 -1.16912,-1.162914 -0.99145,-0.7457 -1.17024,-0.839823 -0.17879,-0.09412 -0.33294,-0.168553 -0.51216,-0.253323 C 79.62599,10.310843 79.18669,10.113081 78.6462,9.8746093 77.56523,9.3976636 76.09304,8.767753 74.34246,8.0269981 70.84128,6.5454899 66.24074,4.6303986 61.62946,2.7347358 57.01818,0.83907293 52.40051,-1.0353259 48.86965,-2.4446325 47.10423,-3.1492866 45.61471,-3.7360897 44.51083,-4.1573215 43.9589,-4.3679373 43.5081,-4.5379101 43.13408,-4.6694756 c -0.18702,-0.065781 -0.35192,-0.1201432 -0.5452,-0.1789785 -0.19328,-0.058831 0.23071,-0.2300895 -1.41806,-0.2257882 z"
     id="path4622"
     inkscape:connector-curvature="0" />
  <defs
     id="defs1379">
    <linearGradient
       gradientUnits="userSpaceOnUse"
       y2="280.58279"
       x2="79.789749"
       y1="258.44095"
       x1="42.985138"
       id="linearGradient1356"
       xlink:href="#linearGradient1354"
       gradientTransform="matrix(-0.18118214,1.7006142,-1.7005878,-0.18118485,510.13085,-3.4324)" />
    <linearGradient
       id="linearGradient1354">
      <stop
         id="stop1350"
         offset="0"
         style="stop-color:#00c4e4;stop-opacity:1" />
      <stop
         style="stop-color:#8114ff;stop-opacity:1"
         offset="0.53876549"
         id="stop1358" />
      <stop
         id="stop1352"
         offset="1"
         style="stop-color:#b000d9;stop-opacity:1" />
    </linearGradient>
    <linearGradient
       inkscape:collect="always"
       xlink:href="#linearGradient1354"
       id="linearGradient3756"
       gradientUnits="userSpaceOnUse"
       gradientTransform="matrix(-0.18118214,1.7006142,-1.7005878,-0.18118485,635.13085,-3.4324)"
       x1="42.985138"
       y1="258.44095"
       x2="79.789749"
       y2="280.58279" />
    <linearGradient
       inkscape:collect="always"
       xlink:href="#linearGradient1354"
       id="linearGradient3758"
       gradientUnits="userSpaceOnUse"
       gradientTransform="matrix(-0.18118214,1.7006142,-1.7005878,-0.18118485,590.78687,69.375629)"
       x1="42.985138"
       y1="258.44095"
       x2="79.789749"
       y2="280.58279" />
    <linearGradient
       inkscape:collect="always"
       xlink:href="#linearGradient1354"
       id="linearGradient4616"
       gradientUnits="userSpaceOnUse"
       gradientTransform="matrix(-0.18118214,1.7006142,-1.7005878,-0.18118485,385.13085,-3.4324)"
       x1="42.985138"
       y1="258.44095"
       x2="79.789749"
       y2="280.58279" />
    <linearGradient
       inkscape:collect="always"
       xlink:href="#linearGradient1354"
       id="linearGradient4624"
       gradientUnits="userSpaceOnUse"
       gradientTransform="matrix(-0.25543085,2.3975285,-2.3974912,-0.25543467,702.24931,-26.203109)"
       x1="48.980167"
       y1="261.92633"
       x2="74.686028"
       y2="277.25238" />
  </defs>
  <path
     d="M -40.22216,-32.799555 V 141.347 H 140.98187 V -32.799555 Z m 81.437,44.354243 c 1.16951,-0.0031 0.86877,0.118426 1.00586,0.160156 0.1371,0.04173 0.25407,0.08029 0.38672,0.126953 0.2653,0.09332 0.58507,0.213887 0.97656,0.363281 0.783,0.298788 1.83955,0.715019 3.0918,1.214844 2.5045,0.999649 5.77991,2.329197 9.05078,3.673828 3.27087,1.344631 6.53413,2.703043 9.01758,3.753906 1.24173,0.525432 2.28597,0.97224 3.05274,1.310547 0.38336,0.169153 0.69498,0.309429 0.94921,0.429688 0.12712,0.06013 0.23645,0.112927 0.36329,0.179687 0.12682,0.06676 7.8e-4,-0.229188 0.83007,0.595703 0.82927,0.824873 0.53026,0.697758 0.59766,0.824219 0.0674,0.126461 0.12084,0.236485 0.18164,0.363281 0.12161,0.253592 0.26435,0.564792 0.43555,0.947266 0.34239,0.764948 0.79607,1.806003 1.32812,3.044922 1.0641,2.477837 2.43871,5.734355 3.80078,8.998047 1.36207,3.263691 2.70966,6.532084 3.72266,9.03125 0.5065,1.249582 0.92946,2.304533 1.23242,3.085937 0.15148,0.390702 0.27249,0.709803 0.36719,0.974609 0.0474,0.132405 0.0864,0.247887 0.12891,0.384766 0.0425,0.136879 0.16301,-0.163717 0.16601,1.00586 0.004,1.164188 -0.11846,0.870809 -0.16016,1.007812 -0.0418,0.137262 -0.0822,0.252062 -0.1289,0.384766 -0.0933,0.265406 -0.21195,0.585029 -0.36133,0.976562 -0.29877,0.783066 -0.71503,1.841465 -1.21484,3.09375 -0.99962,2.504571 -2.33115,5.777897 -3.67578,9.048828 -1.34466,3.270931 -2.70107,6.53604 -3.75196,9.019532 -0.52544,1.241745 -0.97223,2.285966 -1.31054,3.052734 -0.16916,0.383384 -0.30943,0.69498 -0.42969,0.949219 -0.0601,0.127119 -0.11289,0.236461 -0.17969,0.363281 -0.0668,0.12682 0.22917,-0.0012 -0.5957,0.828125 -0.82518,0.82925 -0.6997,0.532169 -0.82618,0.599609 -0.12646,0.06744 -0.23453,0.120831 -0.36132,0.181641 -0.25359,0.121615 -0.5648,0.264347 -0.94727,0.435547 -0.76494,0.3424 -1.80602,0.796064 -3.04492,1.328125 -2.4778,1.064122 -5.73636,2.438688 -9,3.800781 -3.26364,1.362093 -6.53017,2.709639 -9.0293,3.722656 -1.24956,0.506509 -2.30455,0.929455 -3.08593,1.232422 -0.39071,0.151484 -0.70981,0.272448 -0.97461,0.367188 -0.13241,0.04737 -0.24788,0.08644 -0.38477,0.128906 -0.13689,0.04247 0.16382,0.162915 -1.00586,0.166016 -1.16949,0.003 -0.87071,-0.118417 -1.00781,-0.160157 -0.1371,-0.04174 -0.25212,-0.08225 -0.38477,-0.128906 -0.2653,-0.09332 -0.58506,-0.211934 -0.97656,-0.361328 -0.783,-0.298788 -1.8415,-0.715019 -3.09375,-1.214844 -2.5045,-0.999649 -5.77796,-2.33115 -9.04883,-3.675781 -3.27087,-1.344631 -6.53608,-2.70109 -9.01953,-3.751953 -1.24172,-0.525432 -2.28598,-0.974194 -3.05273,-1.3125 -0.38338,-0.169153 -0.69499,-0.307476 -0.94922,-0.427735 -0.12712,-0.06013 -0.23646,-0.11488 -0.36328,-0.18164 -0.12682,-0.06676 0.001,0.231096 -0.82813,-0.59375 C 11.87776,80.077472 12.17482,80.202633 12.10742,80.076172 12.04002,79.949711 11.98658,79.84164 11.92578,79.714844 11.80417,79.461252 11.66143,79.150052 11.49023,78.767578 11.14784,78.00263 10.69416,76.959622 10.16211,75.720703 9.09801,73.242866 7.72535,69.986348 6.36328,66.722656 5.00121,63.458965 3.65167,60.192525 2.63867,57.693359 2.13217,56.443777 1.71117,55.386873 1.4082,54.605469 1.25672,54.214767 1.13572,53.897619 1.04102,53.632812 0.99362,53.500409 0.95262,53.384926 0.91016,53.248047 0.86766,53.111168 0.74714,53.409811 0.74414,52.240234 v -0.002 c -0.002,-1.167007 0.11846,-0.86893 0.16016,-1.005859 0.0417,-0.136929 0.0823,-0.252165 0.1289,-0.384766 0.0933,-0.265201 0.21193,-0.585087 0.36133,-0.976562 0.2988,-0.782951 0.71501,-1.839542 1.21485,-3.091797 0.99963,-2.504511 2.3312,-5.779865 3.67578,-9.050781 1.34457,-3.270916 2.70114,-6.534093 3.75195,-9.017578 0.5254,-1.241743 0.97421,-2.285968 1.3125,-3.052735 0.16914,-0.383383 0.30943,-0.694978 0.42969,-0.949219 0.0601,-0.12712 0.11288,-0.236457 0.17968,-0.363281 0.0668,-0.126824 -0.23114,-7.5e-4 0.59375,-0.830078 0.82518,-0.8293 0.69971,-0.532169 0.82618,-0.599609 0.12646,-0.06744 0.23648,-0.120831 0.36328,-0.181641 0.25359,-0.121616 0.56284,-0.262394 0.94531,-0.433594 0.76494,-0.3424 1.80796,-0.796064 3.04688,-1.328125 2.4778,-1.064122 5.7344,-2.438688 8.99804,-3.800781 3.26364,-1.362093 6.53017,-2.711592 9.0293,-3.724609 1.24956,-0.506509 2.30454,-0.927502 3.08594,-1.230469 0.39069,-0.151484 0.7098,-0.272448 0.97461,-0.367188 0.1324,-0.04737 0.24788,-0.08644 0.38476,-0.128906 0.13689,-0.04247 -0.16184,-0.162916 1.00781,-0.166015 z m 0.0156,6.175781 c -0.0832,0.03184 -0.11909,0.0437 -0.21289,0.08008 -0.72817,0.282328 -1.76793,0.697059 -3.00196,1.197265 -2.46803,1.000417 -5.7234,2.345086 -8.97265,3.701172 -3.24925,1.356086 -6.49443,2.726459 -8.94141,3.777344 -1.22349,0.525442 -2.25006,0.971941 -2.96289,1.291016 -0.0918,0.04107 -0.12593,0.05702 -0.20703,0.09375 -0.0364,0.08161 -0.0529,0.116574 -0.0937,0.208984 -0.31524,0.714535 -0.75652,1.742451 -1.27539,2.96875 -1.03774,2.452599 -2.38986,5.70443 -3.72852,8.960938 -1.33865,3.256508 -2.6651,6.520719 -3.65234,8.99414 -0.49362,1.236711 -0.90315,2.278077 -1.18164,3.007813 -0.0357,0.0937 -0.0468,0.12976 -0.0781,0.21289 0.0318,0.08315 0.0438,0.119141 0.0801,0.212891 0.28233,0.728178 0.69707,1.767914 1.19727,3.001953 1.0004,2.468079 2.34511,5.723357 3.70117,8.972656 1.35606,3.2493 2.72452,6.494391 3.77539,8.941407 0.52543,1.223507 0.97195,2.25005 1.29102,2.96289 0.0412,0.09201 0.0589,0.125751 0.0957,0.207032 0.0813,0.03629 0.11503,0.05317 0.20703,0.09375 0.71452,0.31526 1.74247,0.756495 2.96875,1.27539 2.45256,1.037791 5.70644,2.389814 8.96289,3.728516 3.25645,1.338702 6.51884,2.665127 8.99219,3.652344 1.23668,0.493606 2.27815,0.903203 3.00781,1.18164 0.0937,0.03576 0.12979,0.04682 0.21289,0.07813 0.0831,-0.03182 0.11919,-0.04373 0.21289,-0.08008 0.72817,-0.282328 1.76794,-0.697058 3.00196,-1.197266 2.46804,-1.000415 5.7234,-2.343132 8.97265,-3.699218 3.24925,-1.356087 6.49443,-2.726459 8.94141,-3.777344 1.22349,-0.525442 2.25006,-0.97194 2.96289,-1.291016 0.092,-0.04118 0.12573,-0.05889 0.20703,-0.0957 0.0362,-0.08127 0.0532,-0.115061 0.0937,-0.207031 0.31527,-0.714534 0.75648,-1.742454 1.27539,-2.96875 1.03781,-2.452593 2.38981,-5.706398 3.72852,-8.962891 1.33871,-3.256493 2.66518,-6.518826 3.65234,-8.992187 0.49358,-1.236681 0.90326,-2.278191 1.18164,-3.007813 0.0357,-0.09368 0.0468,-0.12978 0.0781,-0.21289 -0.0318,-0.08315 -0.0438,-0.119141 -0.0801,-0.212891 -0.28233,-0.728178 -0.69707,-1.767914 -1.19727,-3.001953 -1.0004,-2.468079 -2.34315,-5.723357 -3.69922,-8.972656 -1.35606,-3.2493 -2.72647,-6.496344 -3.77734,-8.94336 -0.52543,-1.223507 -0.97195,-2.248097 -1.29102,-2.960937 -0.0412,-0.09201 -0.0589,-0.125762 -0.0957,-0.207031 -0.0813,-0.03629 -0.11503,-0.05317 -0.20703,-0.09375 C 64.66045,27.333185 63.6325,26.89195 62.40622,26.373055 59.95366,25.335264 56.70173,23.983241 53.44528,22.644539 50.18883,21.305837 46.92449,19.97941 44.45114,18.992196 43.21447,18.498588 42.173,18.088992 41.44333,17.810555 c -0.0939,-0.03583 -0.12959,-0.04872 -0.21289,-0.08008 z"
     id="rect3760"
     inkscape:connector-curvature="0"
     sodipodi:nodetypes="ccccccsccssccccccccssssccccccsccccccccssscccccccsssccccccccssscccccscscccccccccscsccccccccsscccscscccssccccssccccsssccccsscccscccccssccccc" />
  <metadata
     id="metadata1382">
    <rdf:RDF>
      <cc:Work
         rdf:about="">
        <dc:format>image/svg+xml</dc:format>
        <dc:type
           rdf:resource="http://purl.org/dc/dcmitype/StillImage" />
        <dc:title></dc:title>
      </cc:Work>
    </rdf:RDF>
  </metadata>
  <circle
     r="6"
     munia:stick-id="0"
     munia:axis-h="0"
     munia:axis-v="1"
     munia:offset-scale="0.27"
     cx="42.322479"
     cy="54.132492"
     id="circle3738"
     style="display:inline;opacity:1;fill:#ffffff;fill-opacity:1;stroke:none;stroke-width:2.32149339;stroke-linejoin:miter;stroke-miterlimit:4;stroke-dasharray:none;stroke-dashoffset:0;stroke-opacity:1" />
  <ellipse
     munia:button-id="0"
     munia:button-state="pressed"
     style="display:inline;opacity:1;fill:#45c21f;fill-opacity:1;stroke:#45c21f;stroke-width:1.75926495;stroke-linejoin:miter;stroke-miterlimit:4;stroke-dasharray:none;stroke-dashoffset:0;stroke-opacity:1"
     id="ellipse3740"
     cx="-89.34317"
     cy="29.595535"
     transform="scale(-1,1)"
     rx="7.8161411"
     ry="7.7900233" />
  <circle
     r="5.0396781"
     munia:button-id="4"
     munia:button-state="pressed"
     style="display:inline;opacity:1;fill:#f7f7f7;fill-opacity:1;stroke:#f7f7f7;stroke-width:1.92064404;stroke-linejoin:miter;stroke-miterlimit:4;stroke-dasharray:none;stroke-dashoffset:0;stroke-opacity:1"
     id="circle3742"
     cx="-93.471466"
     cy="51.338673"
     transform="scale(-1,1)" />
  <ellipse
     munia:button-id="1"
     munia:button-state="pressed"
     ry="7.7900233"
     rx="7.8161411"
     transform="scale(-1,1)"
     cy="73.641052"
     cx="-89.34317"
     id="ellipse3744"
     style="display:inline;opacity:1;fill:#ff4a4a;fill-opacity:1;stroke:#ff4a4a;stroke-width:1.75926495;stroke-linejoin:miter;stroke-miterlimit:4;stroke-dasharray:none;stroke-dashoffset:0;stroke-opacity:1" />
  <circle
     style="display:inline;opacity:1;fill:#ffffff;fill-opacity:1;stroke:none;stroke-width:2.32149339;stroke-linejoin:miter;stroke-miterlimit:4;stroke-dasharray:none;stroke-dashoffset:0;stroke-opacity:1"
     id="circle3748"
     cy="54.132492"
     cx="42.322479"
     munia:offset-scale="0.27"
     munia:axis-v="1"
     munia:axis-h="0"
     munia:stick-id="0"
     r="6" />
  <ellipse
     ry="7.7900233"
     rx="7.8161411"
     transform="scale(-1,1)"
     cy="29.595535"
     cx="-89.34317"
     id="ellipse3750"
     style="display:inline;opacity:1;fill:#45c21f;fill-opacity:1;stroke:#45c21f;stroke-width:1.75926495;stroke-linejoin:miter;stroke-miterlimit:4;stroke-dasharray:none;stroke-dashoffset:0;stroke-opacity:1"
     munia:button-state="pressed"
     munia:button-id="0" />
  <circle
     transform="scale(-1,1)"
     cy="51.338673"
     cx="-93.471466"
     id="circle3752"
     style="display:inline;opacity:1;fill:#f7f7f7;fill-opacity:1;stroke:#f7f7f7;stroke-width:1.92064404;stroke-linejoin:miter;stroke-miterlimit:4;stroke-dasharray:none;stroke-dashoffset:0;stroke-opacity:1"
     munia:button-state="pressed"
     munia:button-id="4"
     r="5.0396781" />
  <ellipse
     style="display:inline;opacity:1;fill:#ff4a4a;fill-opacity:1;stroke:#ff4a4a;stroke-width:1.75926495;stroke-linejoin:miter;stroke-miterlimit:4;stroke-dasharray:none;stroke-dashoffset:0;stroke-opacity:1"
     id="ellipse3754"
     cx="-89.34317"
     cy="73.641052"
     transform="scale(-1,1)"
     rx="7.8161411"
     ry="7.7900233"
     munia:button-state="pressed"
     munia:button-id="1" />
</svg>
