<?xml version="1.0" encoding="UTF-8" standalone="no"?>
<svg
   xmlns:munia="http://www.munia.io/namespaces/munia"
   xmlns:dc="http://purl.org/dc/elements/1.1/"
   xmlns:cc="http://creativecommons.org/ns#"
   xmlns:rdf="http://www.w3.org/1999/02/22-rdf-syntax-ns#"
   xmlns:svg="http://www.w3.org/2000/svg"
   xmlns="http://www.w3.org/2000/svg"
   xmlns:xlink="http://www.w3.org/1999/xlink"
   xmlns:sodipodi="http://sodipodi.sourceforge.net/DTD/sodipodi-0.dtd"
   xmlns:inkscape="http://www.inkscape.org/namespaces/inkscape"
   viewBox="0 0 100 100"
   version="1.1"
   id="svg1385"
   sodipodi:docname="ngc-abstract-v3.svg"
   inkscape:version="0.92.4 (5da689c313, 2019-01-14)">
  <sodipodi:namedview
     pagecolor="#ffffff"
     bordercolor="#666666"
     borderopacity="1"
     objecttolerance="10"
     gridtolerance="10"
     guidetolerance="10"
     inkscape:pageopacity="0"
     inkscape:pageshadow="2"
     inkscape:window-width="2560"
     inkscape:window-height="1373"
     id="namedview18"
     showgrid="false"
     inkscape:zoom="9.44"
     inkscape:cx="31.355932"
     inkscape:cy="50"
     inkscape:window-x="-9"
     inkscape:window-y="290"
     inkscape:window-maximized="1"
     inkscape:current-layer="svg1385"
     inkscape:pagecheckerboard="true"
     inkscape:snap-global="false" />
  <munia:info
     munia:device-type="NGC"
     munia:skin-name="Gamecube Abstract V3" />
  <defs
     id="defs1379">
    <linearGradient
       gradientTransform="matrix(-0.18118214,1.7006142,-1.7005878,-0.18118485,510.13085,-3.4324)"
       xlink:href="#linearGradient1354"
       id="linearGradient1356"
       x1="42.985138"
       y1="258.44095"
       x2="79.789749"
       y2="280.58279"
       gradientUnits="userSpaceOnUse" />
    <linearGradient
       id="linearGradient1354">
      <stop
         style="stop-color:#00c4e4;stop-opacity:1"
         offset="0"
         id="stop1350" />
      <stop
         id="stop1358"
         offset="0.53876549"
         style="stop-color:#8114ff;stop-opacity:1" />
      <stop
         style="stop-color:#b000d9;stop-opacity:1"
         offset="1"
         id="stop1352" />
    </linearGradient>
    <linearGradient
       inkscape:collect="always"
       xlink:href="#linearGradient1354"
       id="linearGradient823"
       gradientUnits="userSpaceOnUse"
       gradientTransform="matrix(-0.18118214,1.7006142,-1.7005878,-0.18118485,510.13085,-3.4324)"
       x1="42.985138"
       y1="258.44095"
       x2="79.789749"
       y2="280.58279" />
  </defs>
  <metadata
     id="metadata1382">
    <rdf:RDF>
      <cc:Work
         rdf:about="">
        <dc:format>image/svg+xml</dc:format>
        <dc:type
           rdf:resource="http://purl.org/dc/dcmitype/StillImage" />
        <dc:title></dc:title>
      </cc:Work>
    </rdf:RDF>
  </metadata>
  <path
     sodipodi:type="inkscape:offset"
     inkscape:radius="0"
     inkscape:original="M 41.222656 14.554688 C 40.647429 14.556223 15.08533 25.223027 14.679688 25.630859 C 14.27403 26.038687 3.7426478 51.657205 3.7441406 52.232422 C 3.7456843 52.807646 14.414443 78.369734 14.822266 78.775391 C 15.230089 79.181047 40.848617 89.712437 41.423828 89.710938 C 41.999054 89.709403 67.559185 79.040643 67.964844 78.632812 C 68.370503 78.224985 78.901891 52.606467 78.900391 52.03125 C 78.898847 51.456026 68.23009 25.895891 67.822266 25.490234 C 67.414443 25.084578 41.797866 14.553187 41.222656 14.554688 z "
     xlink:href="#path9112"
     style="display:inline;opacity:1;fill:none;fill-opacity:1;stroke:url(#linearGradient1356);stroke-width:6;stroke-linejoin:miter;stroke-miterlimit:4;stroke-dasharray:none;stroke-dashoffset:0;stroke-opacity:1"
     id="path821"
     inkscape:href="#path9112"
     d="M 41.222656,14.554688 C 40.647429,14.556223 15.08533,25.223027 14.679688,25.630859 14.27403,26.038687 3.7426478,51.657205 3.7441406,52.232422 3.7456843,52.807646 14.414443,78.369734 14.822266,78.775391 15.230089,79.181047 40.848617,89.712437 41.423828,89.710938 41.999054,89.709403 67.559185,79.040643 67.964844,78.632812 68.370503,78.224985 78.901891,52.606467 78.900391,52.03125 78.898847,51.456026 68.23009,25.895891 67.822266,25.490234 67.414443,25.084578 41.797866,14.553187 41.222656,14.554688 Z" />
  <path
     sodipodi:type="inkscape:offset"
     inkscape:radius="0.84745711"
     inkscape:original="M 41.222656 14.554688 C 40.647429 14.556223 15.08533 25.223027 14.679688 25.630859 C 14.27403 26.038687 3.7426478 51.657205 3.7441406 52.232422 C 3.7456843 52.807646 14.414443 78.369734 14.822266 78.775391 C 15.230089 79.181047 40.848617 89.712437 41.423828 89.710938 C 41.999054 89.709403 67.559185 79.040643 67.964844 78.632812 C 68.370503 78.224985 78.901891 52.606467 78.900391 52.03125 C 78.898847 51.456026 68.23009 25.895891 67.822266 25.490234 C 67.414443 25.084578 41.797866 14.553187 41.222656 14.554688 z "
     xlink:href="#path9112"
     style="display:inline;opacity:1;fill:none;fill-opacity:0.22767855;stroke:#000000;stroke-width:6;stroke-linejoin:miter;stroke-miterlimit:4;stroke-dasharray:none;stroke-dashoffset:0;stroke-opacity:1"
     id="path825"
     inkscape:href="#path9112"
     d="m 41.220703,13.707031 c -0.343273,9.16e-4 -0.289517,0.04184 -0.375,0.06836 -0.08548,0.02652 -0.180933,0.06009 -0.296875,0.101562 -0.231883,0.08295 -0.540713,0.199892 -0.921875,0.347656 -0.762324,0.295529 -1.810654,0.71456 -3.054687,1.21875 -2.488067,1.008381 -5.75312,2.35506 -9.011719,3.714844 -3.2586,1.359784 -6.511684,2.731758 -8.978516,3.791016 -1.233416,0.529629 -2.269355,0.980454 -3.015625,1.314453 -0.373135,0.166999 -0.672468,0.305625 -0.894531,0.412109 -0.111032,0.05324 -0.202271,0.09656 -0.28125,0.138672 -0.07898,0.04211 -0.07035,-0.0247 -0.3125,0.21875 -0.242117,0.243412 -0.173151,0.233301 -0.214844,0.3125 -0.04169,0.0792 -0.08602,0.17189 -0.138672,0.283203 -0.105305,0.222626 -0.241228,0.522466 -0.40625,0.896485 -0.330042,0.748037 -0.775735,1.787218 -1.298828,3.023437 -1.046185,2.472438 -2.4016198,5.732255 -3.7441404,8.998047 -1.3425205,3.265792 -2.6727671,6.535899 -3.6679687,9.029297 -0.4976008,1.246699 -0.9116339,2.298615 -1.203125,3.0625 C 3.2585513,51.020614 3.1442192,51.330181 3.0625,51.5625 c -0.04086,0.11616 -0.073545,0.211255 -0.099609,0.296875 -0.026064,0.08562 -0.067297,0.03174 -0.066406,0.375 9.213e-4,0.343323 0.041837,0.289516 0.068359,0.375 0.026523,0.08548 0.060081,0.180933 0.1015624,0.296875 0.082963,0.231884 0.1998647,0.540713 0.3476563,0.921875 0.2955832,0.762325 0.7144673,1.810655 1.21875,3.054687 1.0085653,2.488066 2.3567682,5.75312 3.7167969,9.011719 1.3600286,3.258599 2.7315756,6.511684 3.7910156,8.978516 0.52972,1.233416 0.980402,2.269356 1.314453,3.015625 0.167026,0.373134 0.305613,0.672471 0.41211,0.894531 0.05325,0.11103 0.09851,0.202276 0.140624,0.28125 0.04212,0.07897 -0.0266,0.0704 0.216797,0.3125 0.243415,0.242122 0.233301,0.173151 0.3125,0.214844 0.0792,0.04169 0.171891,0.08602 0.283203,0.138672 0.222626,0.105305 0.522466,0.241229 0.896485,0.40625 0.748037,0.330042 1.787218,0.775735 3.023437,1.298828 2.472438,1.046186 5.732255,2.40162 8.998047,3.744141 3.265793,1.34252 6.535899,2.672767 9.029297,3.667968 1.246699,0.497601 2.298615,0.911634 3.0625,1.203125 0.381943,0.145746 0.691509,0.260078 0.923828,0.341797 0.11616,0.04086 0.211255,0.07355 0.296875,0.09961 0.08562,0.02606 0.03173,0.0673 0.375,0.06641 0.343334,-9.16e-4 0.289517,-0.04184 0.375,-0.06836 0.08548,-0.02652 0.180939,-0.06008 0.296875,-0.101562 0.231872,-0.08296 0.540739,-0.199865 0.921875,-0.347656 0.762273,-0.295583 1.810746,-0.714468 3.054688,-1.21875 2.487883,-1.008565 5.751411,-2.356768 9.009765,-3.716797 3.258355,-1.360029 6.511867,-2.731575 8.978516,-3.791016 1.233325,-0.52972 2.26941,-0.980401 3.015625,-1.314453 0.373108,-0.167026 0.672485,-0.305612 0.894531,-0.412109 0.111023,-0.05325 0.20228,-0.09851 0.28125,-0.140625 0.07897,-0.04212 0.07043,0.02657 0.3125,-0.216797 0.242119,-0.243413 0.173151,-0.233301 0.214844,-0.3125 0.04169,-0.0792 0.08602,-0.17189 0.138672,-0.283203 0.105305,-0.222626 0.241229,-0.522466 0.40625,-0.896485 0.330042,-0.748037 0.775735,-1.787218 1.298828,-3.023437 1.046186,-2.472438 2.40162,-5.732255 3.744141,-8.998047 1.342521,-3.265792 2.672767,-6.535899 3.667968,-9.029297 0.497601,-1.246699 0.911635,-2.298615 1.203125,-3.0625 0.145746,-0.381943 0.260078,-0.691508 0.341797,-0.923828 0.04086,-0.11616 0.07355,-0.211255 0.09961,-0.296875 0.02606,-0.08562 0.0673,-0.03173 0.06641,-0.375 -9.22e-4,-0.343323 -0.04184,-0.289518 -0.06836,-0.375 -0.02652,-0.08548 -0.06008,-0.18094 -0.101563,-0.296875 -0.08296,-0.231871 -0.199864,-0.540739 -0.347656,-0.921875 -0.295584,-0.762272 -0.714467,-1.810746 -1.21875,-3.054688 -1.008566,-2.487883 -2.356769,-5.751411 -3.716797,-9.009765 -1.360029,-3.258355 -2.731576,-6.511867 -3.791016,-8.978516 -0.52972,-1.233324 -0.980402,-2.26941 -1.314453,-3.015625 -0.167026,-0.373107 -0.305612,-0.672485 -0.412109,-0.894531 -0.05325,-0.111023 -0.09851,-0.20228 -0.140625,-0.28125 -0.04212,-0.07897 0.02657,-0.07042 -0.216797,-0.3125 -0.243385,-0.242092 -0.233305,-0.173151 -0.3125,-0.214844 -0.07919,-0.04169 -0.171898,-0.08602 -0.283203,-0.138672 -0.222611,-0.105305 -0.522493,-0.241228 -0.896485,-0.40625 -0.747984,-0.330042 -1.78731,-0.775735 -3.023437,-1.298828 -2.472255,-1.046186 -5.730545,-2.401619 -8.996094,-3.74414 -3.265549,-1.342522 -6.536081,-2.672768 -9.029297,-3.667969 -1.246607,-0.497601 -2.298667,-0.911634 -3.0625,-1.203125 -0.381916,-0.145746 -0.691521,-0.260077 -0.923828,-0.341797 -0.116153,-0.04086 -0.211256,-0.07354 -0.296875,-0.09961 -0.08562,-0.02607 -0.03173,-0.0673 -0.375,-0.06641 z" />
  <path
     sodipodi:type="inkscape:offset"
     inkscape:radius="-2.3091249"
     inkscape:original="M 41.222656 14.554688 C 40.647429 14.556223 15.08533 25.223027 14.679688 25.630859 C 14.27403 26.038687 3.7426478 51.657205 3.7441406 52.232422 C 3.7456843 52.807646 14.414443 78.369734 14.822266 78.775391 C 15.230089 79.181047 40.848617 89.712437 41.423828 89.710938 C 41.999054 89.709403 67.559185 79.040643 67.964844 78.632812 C 68.370503 78.224985 78.901891 52.606467 78.900391 52.03125 C 78.898847 51.456026 68.23009 25.895891 67.822266 25.490234 C 67.414443 25.084578 41.797866 14.553187 41.222656 14.554688 z "
     xlink:href="#path9112"
     style="display:inline;opacity:1;fill:none;fill-opacity:1;stroke:#000000;stroke-width:3;stroke-linejoin:miter;stroke-miterlimit:4;stroke-dasharray:none;stroke-dashoffset:0;stroke-opacity:1"
     id="path835"
     inkscape:href="#path9112"
     d="m 41.230469,16.994141 c -0.150896,0.05669 -0.261581,0.09579 -0.462891,0.173828 -0.734323,0.284673 -1.773909,0.700295 -3.009766,1.201172 -2.471712,1.001752 -5.729441,2.3465 -8.980468,3.703125 -3.251028,1.356624 -6.498605,2.72505 -8.949219,3.777343 -1.225307,0.526147 -2.253805,0.975148 -2.972656,1.296875 -0.196461,0.08793 -0.301112,0.137835 -0.447266,0.205078 -0.06635,0.146266 -0.116474,0.250874 -0.203125,0.447266 -0.317918,0.720559 -0.759642,1.752376 -1.279297,2.980469 -1.039308,2.456185 -2.391067,5.708592 -3.730469,8.966797 -1.3394008,3.258204 -2.6675887,6.522989 -3.6562495,9 -0.4943304,1.238505 -0.9047615,2.281748 -1.1855469,3.017578 -0.076497,0.200469 -0.1142304,0.310333 -0.1699218,0.460937 0.056705,0.150895 0.095773,0.261582 0.1738281,0.462891 0.2847252,0.734321 0.700204,1.77391 1.2011719,3.009766 1.0019357,2.471711 2.3462563,5.729441 3.7031252,8.980468 1.356868,3.251028 2.72682,6.498601 3.779297,8.949219 0.526238,1.225309 0.973141,2.251846 1.294922,2.970703 0.08815,0.196931 0.139672,0.302847 0.207031,0.449219 0.146265,0.06635 0.250873,0.116474 0.447265,0.203125 0.720559,0.317918 1.752376,0.759642 2.980469,1.279297 2.456186,1.039309 5.708592,2.391067 8.966797,3.730469 3.258205,1.339401 6.52299,2.667589 9,3.65625 1.238505,0.49433 2.281749,0.904762 3.017578,1.185546 0.200469,0.0765 0.310334,0.114231 0.460938,0.169922 0.150881,-0.0567 0.261596,-0.09577 0.46289,-0.173828 0.734265,-0.284722 1.774003,-0.700205 3.009766,-1.201172 2.471526,-1.001933 5.729686,-2.346256 8.980469,-3.703125 3.250782,-1.356868 6.496831,-2.72682 8.947265,-3.779297 1.225218,-0.526238 2.2519,-0.97314 2.970703,-1.294921 0.196916,-0.08815 0.302858,-0.139673 0.449219,-0.207032 0.06635,-0.146265 0.116475,-0.250873 0.203125,-0.447265 0.317918,-0.720558 0.759642,-1.752376 1.279297,-2.980469 1.039309,-2.456185 2.391067,-5.708593 3.730469,-8.966797 1.339401,-3.258204 2.66759,-6.52299 3.65625,-9 0.49433,-1.238505 0.904762,-2.281749 1.185547,-3.017578 0.0765,-0.200469 0.11423,-0.310334 0.169922,-0.460938 -0.0567,-0.150882 -0.09577,-0.261596 -0.173829,-0.46289 -0.284723,-0.734266 -0.700204,-1.774002 -1.201171,-3.009766 -1.001935,-2.471526 -2.346257,-5.729685 -3.703126,-8.980468 -1.356868,-3.250784 -2.72682,-6.496831 -3.779296,-8.947266 -0.526238,-1.225218 -0.973142,-2.251899 -1.294922,-2.970703 -0.08815,-0.196916 -0.139673,-0.302858 -0.207032,-0.449219 -0.146254,-0.06635 -0.250887,-0.116475 -0.447265,-0.203125 -0.720505,-0.317918 -1.750514,-0.759643 -2.978516,-1.279297 -2.456003,-1.039309 -5.710789,-2.391067 -8.96875,-3.730469 -3.25796,-1.339401 -6.521221,-2.66759 -8.998047,-3.65625 -1.238413,-0.494329 -2.281805,-0.904763 -3.017578,-1.185547 -0.200454,-0.0765 -0.310346,-0.114231 -0.460937,-0.169921 z" />
  <path
     d="M 14.822073,78.775297 C 14.41425,78.36964 3.746397,52.808116 3.7448533,52.232892 3.7433605,51.657675 14.274437,26.039502 14.680095,25.631674 15.085737,25.223842 40.64687,14.55581 41.222097,14.554275 c 0.57521,-0.0015 26.192979,10.529755 26.600802,10.935411 0.407824,0.405657 11.075676,25.967181 11.07722,26.542405 0.0015,0.575217 -10.529583,26.19339 -10.935242,26.601218 -0.405659,0.40783 -25.966775,11.075864 -26.542001,11.077399 -0.575211,0.0015 -26.19298,-10.529755 -26.600803,-10.935411 z"
     id="path9112"
     style="display:inline;opacity:1;fill:none;fill-opacity:1;stroke:url(#linearGradient823);stroke-width:6;stroke-linejoin:miter;stroke-miterlimit:4;stroke-dasharray:none;stroke-dashoffset:0;stroke-opacity:1"
     inkscape:connector-curvature="0" />
  <circle
     r="6"
     munia:stick-id="0"
     munia:axis-h="0"
     munia:axis-v="1"
     munia:offset-scale="0.27"
     transform="translate(-0.5, 2.5)"
     cx="41.322487"
     cy="46.132492"
     id="path9116"
     style="display:inline;opacity:1;fill:#ffffff;fill-opacity:1;stroke:#000000;stroke-width:0.75;stroke-linejoin:miter;stroke-miterlimit:4;stroke-dasharray:none;stroke-dashoffset:0;stroke-opacity:1" />
  <ellipse
     munia:button-id="0"
     munia:button-state="pressed"
     style="display:inline;opacity:1;fill:#45c21f;fill-opacity:1;stroke:#000000;stroke-width:0.75;stroke-linejoin:miter;stroke-miterlimit:4;stroke-dasharray:none;stroke-dashoffset:0;stroke-opacity:1"
     id="ellipse2016"
     cx="-91.343002"
     cy="29.595999"
     transform="scale(-1,1)"
     rx="8.3735275"
     ry="8.3475275" />
  <ellipse
     munia:button-id="4"
     munia:button-state="pressed"
     style="display:inline;opacity:1;fill:#f7f7f7;fill-opacity:1;stroke:#000000;stroke-width:0.75;stroke-linejoin:miter;stroke-miterlimit:4;stroke-dasharray:none;stroke-dashoffset:0;stroke-opacity:1"
     id="ellipse2018"
     cx="-94.974503"
     cy="51.850498"
     transform="scale(-1,1)"
     rx="4.6238456"
     ry="4.6088462" />
  <ellipse
     munia:button-id="1"
     munia:button-state="pressed"
     ry="8.3475275"
     rx="8.3735266"
     transform="scale(-1,1)"
     cy="73.640999"
     cx="-91.343002"
     id="ellipse2020"
     style="display:inline;opacity:1;fill:#ff4a4a;fill-opacity:1;stroke:#000000;stroke-width:0.75;stroke-linejoin:miter;stroke-miterlimit:4;stroke-dasharray:none;stroke-dashoffset:0;stroke-opacity:1" />
</svg>
